<svg version="1.1" id="Ebene_1" xmlns="http://www.w3.org/2000/svg" xmlns:xlink="http://www.w3.org/1999/xlink" x="0px" y="0px"
	 viewBox="0 0 2551.2 2551.2" style="enable-background:new 0 0 2551.2 2551.2;" xml:space="preserve">
<style type="text/css">
                .st0{fill:#3F3E3E;}
</style>
<g>
	<path class="st0" d="M615.2,532.4L261.3,2040.8c-2.5,10.7,10.3,18.2,18.4,10.9l39.7-35.9L656.7,628c5.5-22.7,27-37.8,50.2-35.3
		l1393.4,147.5c-138.7,138.1-233.6,315.6-293.2,506.1l75,19.7c36.6-164.9,172.1-372.7,408.2-592.4L666,496.4
		C642.4,493.9,620.6,509.3,615.2,532.4z"/>
	<path class="st0" d="M691.9,657.6L339.2,2000.8l42.6-41.1c3.5-3.4,6.2-7.6,7.7-12.2l243.4-739.2c52.8-152.4,122.1-199.8,244-176.1
		l897.7,203.7c37.7-139,86-274.6,246.1-467L727.2,633.4C711,631.7,696.1,642,691.9,657.6z M839.8,879.5
		c-38,23.5-87.7,11.7-111.2-26.2c-23.5-38-11.7-87.7,26.2-111.2s87.7-11.7,111.2,26.2C889.5,806.3,877.8,856.1,839.8,879.5z
		 M1621.1,965.3c-39.4,24.3-91,12.2-115.3-27.2c-24.3-39.4-12.2-91,27.2-115.3c39.4-24.3,91-12.2,115.3,27.2
		C1672.7,889.3,1660.5,940.9,1621.1,965.3z"/>
	<path class="st0" d="M1114.5,1358.7c-121.6-22.2-211-100-212.1-179.5c-2.5,6.3-4.5,12.9-5.7,19.7c-15.8,86.3,78.4,175.8,210.4,200
		c132,24.1,251.8-26.3,267.6-112.6c1.2-6.8,1.7-13.6,1.6-20.4C1347.2,1339.9,1236,1381,1114.5,1358.7z" transform="rotate(180 1150 1350)"/>
</g>
</svg>